<?xml version="1.0" encoding="utf-8"?>
<!-- Generator: Adobe Illustrator 15.1.0, SVG Export Plug-In . SVG Version: 6.00 Build 0)  -->
<!DOCTYPE svg PUBLIC "-//W3C//DTD SVG 1.1//EN" "http://www.w3.org/Graphics/SVG/1.1/DTD/svg11.dtd">
<svg version="1.1" id="Layer_1" xmlns="http://www.w3.org/2000/svg" xmlns:xlink="http://www.w3.org/1999/xlink" x="0px" y="0px"
	 width="186.925px" height="178.004px" viewBox="0 0 186.925 178.004" enable-background="new 0 0 186.925 178.004"
	 xml:space="preserve">
<g>
	<g>
		<path d="M0,129.891h20.137V5.807H0V3.266h58.413v2.541H38.278v124.084h32.289c10.643,0,18.986-3.323,25.035-9.977
			c6.045-6.648,10.462-15.723,13.242-27.212h1.997v39.729H0V129.891z"/>
	</g>
	<g>
		<path d="M52.139,129.891h15.965L117.083,0h4.356l49.34,129.891h16.146v2.541H131.05v-2.541h20.138l-19.046-50.433H90.054
			l-19.05,50.433h20.137v2.541H52.139V129.891z M111.098,24.127L91.141,76.918h39.909L111.098,24.127z"/>
	</g>
	<rect x="75.881" y="77.242" width="57" height="2"/>
	<text transform="matrix(1 0 0 1 11.9995 156.0762)"><tspan x="0" y="0" font-family="'Didot'" font-size="21.257">L</tspan><tspan x="14.561" y="0" font-family="'Didot'" font-size="21.257" letter-spacing="-1">a</tspan><tspan x="23.723" y="0" font-family="'Didot'" font-size="21.257">wt</tspan><tspan x="46.552" y="0" font-family="'Didot'" font-size="21.257">o</tspan><tspan x="57.521" y="0" font-family="'Didot'" font-size="21.257">n </tspan><tspan x="76.418" y="0" font-family="'Didot'" font-size="21.257" letter-spacing="-1">A</tspan><tspan x="90.895" y="0" font-family="'Didot'" font-size="21.257">c</tspan><tspan x="101.118" y="0" font-family="'Didot'" font-size="21.257">a</tspan><tspan x="110.493" y="0" font-family="'Didot'" font-size="21.257">de</tspan><tspan x="132.876" y="0" font-family="'Didot'" font-size="21.257">m</tspan><tspan x="151.157" y="0" font-family="'Didot'" font-size="21.257">y</tspan></text>
	<text transform="matrix(1 0 0 1 22.103 172.9453)"><tspan x="0" y="0" font-family="'Didot'" font-size="16.9189">of </tspan><tspan x="19.744" y="0" font-family="'Didot'" font-size="16.9189" letter-spacing="-1">A</tspan><tspan x="31.266" y="0" font-family="'Didot'" font-size="16.9189">rt</tspan><tspan x="43.786" y="0" font-family="'Didot'" font-size="16.9189" letter-spacing="-1">s</tspan><tspan x="49.302" y="0" font-family="'Didot'" font-size="16.9189"> </tspan><tspan x="54.005" y="0" font-family="'Didot'" font-size="16.9189" letter-spacing="-1">&amp;</tspan><tspan x="65.814" y="0" font-family="'Didot'" font-size="16.9189"> </tspan><tspan x="70.518" y="0" font-family="'Didot'" font-size="16.9189">S</tspan><tspan x="81.126" y="0" font-family="'Didot'" font-size="16.9189">c</tspan><tspan x="89.264" y="0" font-family="'Didot'" font-size="16.9189">i</tspan><tspan x="93.595" y="0" font-family="'Didot'" font-size="16.9189">en</tspan><tspan x="111.715" y="0" font-family="'Didot'" font-size="16.9189">ces</tspan></text>
</g>
</svg>
